# xmcd
#
# Track frame offsets:
#	150
#	14820
#	30797
#	47337
#	64328
#	79877
#	92451
#	109011
#	122817
#	143765
#
# Disc length: 2126 seconds
#
# Revision: 0
# Processed by: cddbd v1.4PL0 Copyright (c) Steve Scherf et al.
# Submitted via: AudioConverter v4.05 Copyright (c) Dennis Rebentrost
#
DISCID=79084c0a
DTITLE=Creed Country - Arrested By Love
DYEAR=2001
DGENRE=Country
TTITLE0=I Love You Because You Died
TTITLE1=Eastbay
TTITLE2=Arrested By Love
TTITLE3=In The Arms Of Christ
TTITLE4=T.G.I.F.
TTITLE5=No Fear
TTITLE6=Just One Touch
TTITLE7=The Sermon
TTITLE8=I Believe In You
TTITLE9=Words Don't Mean Nothing
EXTD=
EXTT0=
EXTT1=
EXTT2=
EXTT3=
EXTT4=
EXTT5=
EXTT6=
EXTT7=
EXTT8=
EXTT9=
PLAYORDER=
